HIERARCHY
ROOT joint_Root
{
  OFFSET 0 0 0
  CHANNELS 6 Xposition Yposition Zposition Zrotation Xrotation Yrotation
  JOINT Hips
  {
    OFFSET 0 93.9241 -3
    CHANNELS 6 Xposition Yposition Zposition Zrotation Xrotation Yrotation
    JOINT Spine
    {
      OFFSET 15.7357 0 0
      CHANNELS 6 Xposition Yposition Zposition Zrotation Xrotation Yrotation
      JOINT Chest
      {
        OFFSET 8.98455 -0.406207 0
        CHANNELS 6 Xposition Yposition Zposition Zrotation Xrotation Yrotation
        JOINT Neck
        {
          OFFSET 16.3773 0 0
          CHANNELS 6 Xposition Yposition Zposition Zrotation Xrotation Yrotation
          JOINT Head
          {
            OFFSET 6.45672 0 0
            CHANNELS 6 Xposition Yposition Zposition Zrotation Xrotation Yrotation
            End Site
            {
              OFFSET 0 0 0
            }
          }
        }
        JOINT Shoulder_L
        {
          OFFSET 12.9942 -0.242716 4.98039
          CHANNELS 6 Xposition Yposition Zposition Zrotation Xrotation Yrotation
          JOINT UpperArm_L
          {
            OFFSET 5.34809 0 0
            CHANNELS 6 Xposition Yposition Zposition Zrotation Xrotation Yrotation
            JOINT LowerArm_L
            {
              OFFSET 24.3286 1.87007e-05 0
              CHANNELS 6 Xposition Yposition Zposition Zrotation Xrotation Yrotation
              JOINT Hand_L
              {
                OFFSET 22.2916 0 0
                CHANNELS 6 Xposition Yposition Zposition Zrotation Xrotation Yrotation
                End Site
                {
                  OFFSET 0 0 0
                }
              }
            }
          }
        }
        JOINT Shoulder_R
        {
          OFFSET 12.9945 -0.242716 -4.98039
          CHANNELS 6 Xposition Yposition Zposition Zrotation Xrotation Yrotation
          JOINT UpperArm_R
          {
            OFFSET -5.34813 0 0
            CHANNELS 6 Xposition Yposition Zposition Zrotation Xrotation Yrotation
            JOINT LowerArm_R
            {
              OFFSET -24.3289 0.000322201 0
              CHANNELS 6 Xposition Yposition Zposition Zrotation Xrotation Yrotation
              JOINT Hand_R
              {
                OFFSET -22.2915 -0.000108084 0
                CHANNELS 6 Xposition Yposition Zposition Zrotation Xrotation Yrotation
                End Site
                {
                  OFFSET 0 0 0
                }
              }
            }
          }
        }
      }
    }
    JOINT UpperLeg_L
    {
      OFFSET -2.19248 -6.46944 0
      CHANNELS 6 Xposition Yposition Zposition Zrotation Xrotation Yrotation
      JOINT LowerLeg_L
      {
        OFFSET 39.0811 0 -1.23785e-05
        CHANNELS 6 Xposition Yposition Zposition Zrotation Xrotation Yrotation
        JOINT Foot_L
        {
          OFFSET 40.9854 0 -1.26872e-05
          CHANNELS 6 Xposition Yposition Zposition Zrotation Xrotation Yrotation
          JOINT Toes_L
          {
            OFFSET 11.7543 0 0
            CHANNELS 6 Xposition Yposition Zposition Zrotation Xrotation Yrotation
            End Site
            {
              OFFSET 0 0 0
            }
          }
        }
      }
    }
    JOINT UpperLeg_R
    {
      OFFSET -2.19251 6.46944 0
      CHANNELS 6 Xposition Yposition Zposition Zrotation Xrotation Yrotation
      JOINT LowerLeg_R
      {
        OFFSET -39.0811 -0.00228153 -0.0401928
        CHANNELS 6 Xposition Yposition Zposition Zrotation Xrotation Yrotation
        JOINT Foot_R
        {
          OFFSET -40.9854 0 0
          CHANNELS 6 Xposition Yposition Zposition Zrotation Xrotation Yrotation
          JOINT Toes_R
          {
            OFFSET -11.7543 0 0
            CHANNELS 6 Xposition Yposition Zposition Zrotation Xrotation Yrotation
            End Site
            {
              OFFSET 0 0 0
            }
          }
        }
      }
    }
  }
}
MOTION
Frames:	9
Frame Time:	0.0333333
0 0 0 0 0 -0 -13.7178 89.6997 -7.85268 93.4327 -52.1495 -12.306 15.7357 5.1072e-06 -5.51765e-07 98.2228 72.0468 -107.337 8.98455 -0.406207 -4.3199e-07 28.1552 3.30448 -19.2326 16.3773 -1.3905e-06 -6.99897e-07 6.48669 6.16146 -14.0128 6.45672 -1.25837e-06 -1.02172e-07 4.93856 -0.997091 -14.817 12.9942 -0.242716 4.98039 -90.2495 3.23291 -100.584 5.34809 -7.22636e-06 -6.2814e-07 -53.0723 -7.76025 -24.8875 24.3286 1.87007e-05 4.90208e-06 3.20593 9.95016 -17.9583 22.2916 -9.88446e-07 4.63217e-06 8.47272 5.07031 5.78455 12.9945 -0.242716 -4.98039 89.2375 -5.93524 -112.334 -5.34813 -1.25947e-06 -3.79883e-06 -56.7953 4.91744 -65.0386 -24.3289 0.000322201 -8.65921e-06 7.1353 12.3664 -30.3103 -22.2915 -0.000108084 -4.47941e-06 16.2216 5.40065 -2.95659 -2.19248 -6.46944 -1.22534e-07 -173.293 20.03 -38.4706 39.0811 -6.73843e-06 -1.23785e-05 -0.0530729 0.0769903 35.268 40.9854 -6.48686e-06 -1.26872e-05 -2.98659 -3.33816 -64.3084 11.7543 -2.30145e-07 3.05095e-06 -0.210974 0.218495 -16.5728 -2.19251 6.46944 -1.45247e-06 -171.639 14.5393 160.1 -39.0811 -0.00228153 -0.0401928 0.325224 -0.313741 45.2728 -40.9854 7.72618e-06 5.99936e-06 -18.8412 8.38137 -41.7129 -11.7543 -5.6619e-06 -5.58687e-06 1.23856 -1.55792 -27.6573 
0 0 0 0 0 -0 -15.1042 89.9725 -7.47562 92.5153 -52.5094 -13.2121 15.7357 5.1072e-06 -5.51765e-07 98.2413 71.9067 -107.13 8.98455 -0.406207 -4.3199e-07 28.4281 3.36964 -18.806 16.3773 -1.3905e-06 -6.99897e-07 6.4552 5.98426 -13.5095 6.45672 -1.25837e-06 -1.02172e-07 4.97581 -1.43819 -14.3374 12.9942 -0.242716 4.98039 -90.2255 2.91758 -100.579 5.34809 -7.22636e-06 -6.2814e-07 -52.9023 -6.61474 -27.1818 24.3286 1.87007e-05 4.90208e-06 3.45702 9.58605 -19.9395 22.2916 -9.88446e-07 4.63217e-06 7.72267 5.08882 5.36854 12.9945 -0.242716 -4.98039 89.2331 -6.06921 -112.215 -5.34813 -1.25947e-06 -3.79883e-06 -55.5104 3.06551 -67.9115 -24.3289 0.000322201 -8.65921e-06 7.76504 12.004 -33.2547 -22.2915 -0.000108084 -4.47941e-06 17.7333 5.42591 -3.79656 -2.19248 -6.46944 -1.22534e-07 -172.996 18.8653 -37.0676 39.0811 -6.73843e-06 -1.23785e-05 -0.0298884 0.0444169 34.5931 40.9854 -6.48686e-06 -1.26872e-05 -2.85008 -2.55265 -65.0581 11.7543 -2.30145e-07 3.05095e-06 -0.208747 0.214852 -16.5729 -2.19251 6.46944 -1.45247e-06 -173.078 9.87576 158.726 -39.0811 -0.00228153 -0.0401928 0.329427 -0.305351 46.9778 -40.9854 7.72618e-06 5.99936e-06 -22.612 11.1175 -36.9721 -11.7543 -5.6619e-06 -5.58687e-06 0.574158 -0.646241 -21.3856 
0 0 0 0 0 -0 -16.454 90.2786 -7.15446 92.385 -52.7048 -13.4396 15.7357 5.1072e-06 -5.51765e-07 97.9671 71.817 -106.699 8.98455 -0.406207 -4.3199e-07 28.6105 3.24133 -18.4648 16.3773 -1.3905e-06 -6.99897e-07 6.53057 5.62791 -13.3102 6.45672 -1.25837e-06 -1.02172e-07 5.08331 -1.5008 -13.9947 12.9942 -0.242716 4.98039 -90.2067 2.703 -100.626 5.34809 -7.22636e-06 -6.2814e-07 -52.4795 -5.61947 -29.5652 24.3286 1.87007e-05 4.90208e-06 4.20121 10.1726 -22.5728 22.2916 -9.88446e-07 4.63217e-06 8.94072 5.08232 5.51478 12.9945 -0.242716 -4.98039 89.2336 -6.40046 -111.843 -5.34813 -1.25947e-06 -3.79883e-06 -55.4194 1.48036 -70.485 -24.3289 0.000322201 -8.65921e-06 7.83469 11.4682 -34.69 -22.2915 -0.000108084 -4.47941e-06 19.1145 5.45255 -4.73008 -2.19248 -6.46944 -1.22534e-07 -173.175 17.6795 -35.3758 39.0811 -6.73843e-06 -1.23785e-05 0.00444867 -0.00739163 33.3008 40.9854 -6.48686e-06 -1.26872e-05 -2.64764 -1.41922 -65.4348 11.7543 -2.30145e-07 3.05095e-06 -0.194633 0.200176 -16.5729 -2.19251 6.46944 -1.45247e-06 -174.459 6.74905 156.615 -39.0811 -0.00228153 -0.0401928 0.324829 -0.269764 50.2873 -40.9854 7.72618e-06 5.99936e-06 -20.4516 9.54518 -40.8479 -11.7543 -5.6619e-06 -5.58687e-06 0.587121 -0.662125 -21.4996 
0 0 0 0 0 -0 -17.7261 90.5878 -6.97675 92.1303 -53.0139 -13.4712 15.7357 5.1072e-06 -5.51765e-07 97.6931 71.6674 -106.29 8.98455 -0.406207 -4.3199e-07 28.9123 3.1131 -18.1722 16.3773 -1.3905e-06 -6.99897e-07 6.70787 5.52731 -13.1195 6.45672 -1.25837e-06 -1.02172e-07 5.01362 -1.42644 -14.1098 12.9942 -0.242716 4.98039 -90.1771 2.34096 -100.672 5.34809 -7.22636e-06 -6.2814e-07 -52.3198 -5.51338 -31.6116 24.3286 1.87007e-05 4.90208e-06 5.69076 11.5241 -26.4761 22.2916 -9.88446e-07 4.63217e-06 10.7723 5.06889 5.81727 12.9945 -0.242716 -4.98039 89.2424 -6.72194 -111.445 -5.34813 -1.25947e-06 -3.79883e-06 -55.6082 0.22449 -72.9116 -24.3289 0.000322201 -8.65921e-06 7.65888 10.9896 -35.2036 -22.2915 -0.000108084 -4.47941e-06 19.5232 5.44412 -4.43113 -2.19248 -6.46944 -1.22534e-07 -173.14 16.7164 -33.6676 39.0811 -6.73843e-06 -1.23785e-05 0.0422997 -0.0704398 32.2026 40.9854 -6.48686e-06 -1.26872e-05 -2.61305 -0.417343 -65.3365 11.7543 -2.30145e-07 3.05095e-06 -0.166178 0.170952 -17.0378 -2.19251 6.46944 -1.45247e-06 -175.506 4.47605 153.769 -39.0811 -0.00228153 -0.0401928 0.286832 -0.209211 54.1059 -40.9854 7.72618e-06 5.99936e-06 -14.9905 3.89082 -45.953 -11.7543 -5.6619e-06 -5.58687e-06 0.549277 -0.615871 -21.167 
0 0 0 0 0 -0 -18.9256 90.8521 -6.9486 91.535 -53.4662 -13.5931 15.7357 5.1072e-06 -5.51765e-07 97.5788 71.4564 -105.991 8.98455 -0.406207 -4.3199e-07 29.3318 3.09496 -17.8144 16.3773 -1.3905e-06 -6.99897e-07 6.8252 5.54044 -13.1028 6.45672 -1.25837e-06 -1.02172e-07 5.03327 -1.21855 -14.2958 12.9942 -0.242716 4.98039 -90.149 1.9516 -100.635 5.34809 -7.22636e-06 -6.2814e-07 -52.4749 -6.0653 -33.6648 24.3286 1.87007e-05 4.90208e-06 7.26526 12.3488 -30.7983 22.2916 -9.88446e-07 4.63217e-06 12.2836 5.07729 5.62929 12.9945 -0.242716 -4.98039 89.2545 -6.95642 -111.132 -5.34813 -1.25947e-06 -3.79883e-06 -55.7435 -0.906782 -74.8823 -24.3289 0.000322201 -8.65921e-06 7.67963 11.0367 -35.1639 -22.2915 -0.000108084 -4.47941e-06 19.0981 5.42908 -3.90705 -2.19248 -6.46944 -1.22534e-07 -172.802 15.9825 -32.1156 39.0811 -6.73843e-06 -1.23785e-05 0.0694935 -0.116493 31.4791 40.9854 -6.48686e-06 -1.26872e-05 -2.77674 0.0567546 -65.1021 11.7543 -2.30145e-07 3.05095e-06 -0.130503 0.132388 -17.7228 -2.19251 6.46944 -1.45247e-06 -176.45 2.52964 150.528 -39.0811 -0.00228153 -0.0401928 0.227502 -0.150191 57.2477 -40.9854 7.72618e-06 5.99936e-06 -10.0909 -2.66939 -49.3455 -11.7543 -5.6619e-06 -5.58687e-06 0.509655 -0.56798 -20.8214 
0 0 0 0 0 -0 -20.1267 91.1233 -7.08695 90.5939 -53.7855 -13.9243 15.7357 5.1072e-06 -5.51765e-07 97.5465 71.227 -105.722 8.98455 -0.406207 -4.3199e-07 29.7846 3.13915 -17.3669 16.3773 -1.3905e-06 -6.99897e-07 7.05005 5.59946 -13.0501 6.45672 -1.25837e-06 -1.02172e-07 5.05126 -0.987629 -14.4534 12.9942 -0.242716 4.98039 -90.1258 1.57474 -100.434 5.34809 -7.22636e-06 -6.2814e-07 -52.4382 -6.74121 -36.1618 24.3286 1.87007e-05 4.90208e-06 8.19862 12.211 -34.2368 22.2916 -9.88446e-07 4.63217e-06 13.1387 5.10342 5.03557 12.9945 -0.242716 -4.98039 89.2774 -6.9463 -110.954 -5.34813 -1.25947e-06 -3.79883e-06 -55.6491 -1.84279 -76.0141 -24.3289 0.000322201 -8.65921e-06 7.81361 11.3341 -34.9282 -22.2915 -0.000108084 -4.47941e-06 18.7379 5.42356 -3.71884 -2.19248 -6.46944 -1.22534e-07 -172.308 14.827 -30.4984 39.0811 -6.73843e-06 -1.23785e-05 0.113663 -0.159 30.7166 40.9854 -6.48686e-06 -1.26872e-05 -2.94599 0.865852 -64.6663 11.7543 -2.30145e-07 3.05095e-06 -0.0890187 0.0856131 -18.5326 -2.19251 6.46944 -1.45247e-06 -177.251 0.972449 147.378 -39.0811 -0.00228153 -0.0401928 0.159173 -0.101831 58.9021 -40.9854 7.72618e-06 5.99936e-06 -6.05571 -7.83376 -52.3147 -11.7543 -5.6619e-06 -5.58687e-06 0.514035 -0.573255 -20.8596 
0 0 0 0 0 -0 -21.3276 91.4188 -7.39841 89.7358 -53.7907 -14.2507 15.7357 5.1072e-06 -5.51765e-07 97.4451 71.0478 -105.385 8.98455 -0.406207 -4.3199e-07 30.1394 3.13664 -16.9069 16.3773 -1.3905e-06 -6.99897e-07 7.36404 5.67459 -12.8802 6.45672 -1.25837e-06 -1.02172e-07 5.0938 -0.83618 -14.5415 12.9942 -0.242716 4.98039 -90.0972 1.15359 -100.185 5.34809 -7.22636e-06 -6.2814e-07 -51.7401 -7.14569 -39.0168 24.3286 1.87007e-05 4.90208e-06 8.46714 11.6138 -36.4739 22.2916 -9.88446e-07 4.63217e-06 13.2949 5.11078 4.86531 12.9945 -0.242716 -4.98039 89.2874 -6.88176 -110.926 -5.34813 -1.25947e-06 -3.79883e-06 -55.9481 -2.48449 -75.8855 -24.3289 0.000322201 -8.65921e-06 7.97528 11.5507 -34.9836 -22.2915 -0.000108084 -4.47941e-06 18.8539 5.41641 -3.47879 -2.19248 -6.46944 -1.22534e-07 -171.705 13.3419 -29.1855 39.0811 -6.73843e-06 -1.23785e-05 0.113082 -0.205193 29.9562 40.9854 -6.48686e-06 -1.26872e-05 -3.0902 2.33291 -63.7601 11.7543 -2.30145e-07 3.05095e-06 -0.0278046 0.0165632 -19.6128 -2.19251 6.46944 -1.45247e-06 -178.165 0.267217 144.421 -39.0811 -0.00228153 -0.0401928 0.126223 -0.0852876 58.6182 -40.9854 7.72618e-06 5.99936e-06 -3.54336 -10.9323 -54.5226 -11.7543 -5.6619e-06 -5.58687e-06 0.492403 -0.547312 -20.6718 
0 0 0 0 0 -0 -22.6114 91.7126 -7.81918 88.9501 -53.6759 -14.3776 15.7357 5.1072e-06 -5.51765e-07 97.5154 70.8059 -105.204 8.98455 -0.406207 -4.3199e-07 30.6142 3.25161 -16.4507 16.3773 -1.3905e-06 -6.99897e-07 7.537 5.59891 -12.8742 6.45672 -1.25837e-06 -1.02172e-07 5.11799 -0.743304 -14.401 12.9942 -0.242716 4.98039 -90.0736 0.836409 -99.9707 5.34809 -7.22636e-06 -6.2814e-07 -50.1578 -7.13583 -42.2896 24.3286 1.87007e-05 4.90208e-06 8.62781 11.4508 -37.3909 22.2916 -9.88446e-07 4.63217e-06 13.4419 5.09767 5.16754 12.9945 -0.242716 -4.98039 89.3072 -6.77445 -110.854 -5.34813 -1.25947e-06 -3.79883e-06 -56.2216 -2.86867 -74.7522 -24.3289 0.000322201 -8.65921e-06 7.86653 11.4442 -34.8553 -22.2915 -0.000108084 -4.47941e-06 19.3663 5.42666 -3.82377 -2.19248 -6.46944 -1.22534e-07 -171.09 11.7963 -27.7444 39.0811 -6.73843e-06 -1.23785e-05 0.133839 -0.248875 29.18 40.9854 -6.48686e-06 -1.26872e-05 -3.30552 3.89826 -62.52 11.7543 -2.30145e-07 3.05095e-06 0.0306973 -0.0524063 -21.038 -2.19251 6.46944 -1.45247e-06 -179.153 0.0154186 142.481 -39.0811 -0.00228153 -0.0401928 0.13211 -0.0991238 55.7367 -40.9854 7.72618e-06 5.99936e-06 -2.53813 -12.1302 -55.4847 -11.7543 -5.6619e-06 -5.58687e-06 0.485596 -0.539195 -20.613 
0 0 0 0 0 -0 -23.9864 91.9795 -8.34137 88.1812 -53.5027 -14.5653 15.7357 5.1072e-06 -5.51765e-07 97.4691 70.6714 -104.986 8.98455 -0.406207 -4.3199e-07 30.8797 3.26861 -16.1205 16.3773 -1.3905e-06 -6.99897e-07 7.59943 5.82456 -12.8449 6.45672 -1.25837e-06 -1.02172e-07 5.21073 -0.656484 -14.4086 12.9942 -0.242716 4.98039 -90.0451 0.48191 -99.6555 5.34809 -7.22636e-06 -6.2814e-07 -48.4085 -7.53224 -45.2888 24.3286 1.87007e-05 4.90208e-06 8.84958 11.7514 -37.3954 22.2916 -9.88446e-07 4.63217e-06 12.8854 5.10345 5.03441 12.9945 -0.242716 -4.98039 89.2991 -6.49443 -111.173 -5.34813 -1.25947e-06 -3.79883e-06 -56.473 -2.85777 -72.8567 -24.3289 0.000322201 -8.65921e-06 7.64109 11.4297 -34.1021 -22.2915 -0.000108084 -4.47941e-06 19.8048 5.43499 -4.11158 -2.19248 -6.46944 -1.22534e-07 -170.252 10.4925 -26.4049 39.0811 -6.73843e-06 -1.23785e-05 0.151987 -0.294176 28.3548 40.9854 -6.48686e-06 -1.26872e-05 -3.69439 5.278 -61.1975 11.7543 -2.30145e-07 3.05095e-06 0.0920404 -0.127099 -22.5485 -2.19251 6.46944 -1.45247e-06 179.949 -0.0984348 141.352 -39.0811 -0.00228153 -0.0401928 0.1382 -0.128034 50.3344 -40.9854 7.72618e-06 5.99936e-06 -2.34798 -12.1337 -55.7767 -11.7543 -5.6619e-06 -5.58687e-06 0.477986 -0.530128 -20.5471 
